<?xml version="1.0" encoding="UTF-8" standalone="no"?>
<!-- Generator: Adobe Illustrator 16.0.4, SVG Export Plug-In . SVG Version: 6.00 Build 0)  -->

<svg
   xmlns:dc="http://purl.org/dc/elements/1.1/"
   xmlns:cc="http://creativecommons.org/ns#"
   xmlns:rdf="http://www.w3.org/1999/02/22-rdf-syntax-ns#"
   xmlns:svg="http://www.w3.org/2000/svg"
   xmlns="http://www.w3.org/2000/svg"
   xmlns:sodipodi="http://sodipodi.sourceforge.net/DTD/sodipodi-0.dtd"
   xmlns:inkscape="http://www.inkscape.org/namespaces/inkscape"
   version="1.1"
   id="Capa_1"
   x="0px"
   y="0px"
   width="32px"
   height="32px"
   viewBox="0 0 32 32"
   enable-background="new 0 0 32 32"
   xml:space="preserve"
   inkscape:version="0.48.4 r9939"
   sodipodi:docname="icon-3.svg"><metadata
     id="metadata3039"><rdf:RDF><cc:Work
         rdf:about=""><dc:format>image/svg+xml</dc:format><dc:type
           rdf:resource="http://purl.org/dc/dcmitype/StillImage" /><dc:title></dc:title></cc:Work></rdf:RDF></metadata><defs
     id="defs3037" /><sodipodi:namedview
     pagecolor="#ffffff"
     bordercolor="#666666"
     borderopacity="1"
     objecttolerance="10"
     gridtolerance="10"
     guidetolerance="10"
     inkscape:pageopacity="0"
     inkscape:pageshadow="2"
     inkscape:window-width="1301"
     inkscape:window-height="744"
     id="namedview3035"
     showgrid="false"
     inkscape:zoom="11.313708"
     inkscape:cx="13.431613"
     inkscape:cy="14.168302"
     inkscape:window-x="65"
     inkscape:window-y="24"
     inkscape:window-maximized="1"
     inkscape:current-layer="Capa_1" /><path
     d="M30,10V2H2v8h2v2H2v8h2v2H2v8h28v-8h-2v-2h2v-8h-2v-2H30z M4,6h4v2H4V6z M4,16h4v2H4V16z M8,28H4v-2h4V28z M26,22H6v-2h20  V22z M26,12H6v-2h20V12z"
     id="path3033"
     style="fill:#cccccc" /><rect
     style="fill:#00ff00;fill-opacity:1"
     id="rect3187-9"
     width="10.049937"
     height="7.017767"
     x="2.580575"
     y="22.439695" /><rect
     style="fill:#00ff00;fill-opacity:1"
     id="rect3187-9-5"
     width="10.049937"
     height="7.017767"
     x="2.399653"
     y="12.492825" /></svg>